<svg xmlns="http://www.w3.org/2000/svg" xmlns:xlink="http://www.w3.org/1999/xlink" width="261.241" height="287.283" viewBox="0 0 261.241 287.283"><defs><style>.a{fill:url(#a);}.b{fill:#5541ed;}.c{fill:#7b6ef9;}.d{fill:#a9a5ef;}.e{fill:#c8c8fc;}.f,.h{fill:#fff;}.g{fill:url(#b);}.h{opacity:0.56;}.i{fill:url(#c);}.j{fill:url(#d);}.k{fill:url(#e);}.l{fill:url(#f);}.m{fill:url(#g);}.n{fill:#9f95f9;}.o{fill:url(#h);}.p{fill:url(#i);}.q{fill:url(#j);}.r{fill:url(#k);}.s{fill:url(#l);}.t{fill:url(#m);}.u{fill:url(#n);}</style><linearGradient id="a" x1="1.061" y1="1.13" x2="0.324" y2="0.337" gradientUnits="objectBoundingBox"><stop offset="0" stop-color="#dae3fe"/><stop offset="1" stop-color="#e9effd"/></linearGradient><linearGradient id="b" x1="4.924" y1="-0.437" x2="3.789" y2="0.967" gradientUnits="objectBoundingBox"><stop offset="0" stop-color="#febbba"/><stop offset="1" stop-color="#ff928e"/></linearGradient><linearGradient id="c" x1="-12.342" y1="0.5" x2="-11.342" y2="0.5" xlink:href="#b"/><linearGradient id="d" x1="-26.442" y1="-5.594" x2="-27.645" y2="0.571" gradientUnits="objectBoundingBox"><stop offset="0" stop-color="#4f52ff"/><stop offset="1" stop-color="#4042e2"/></linearGradient><linearGradient id="e" x1="2.723" y1="-0.67" x2="-0.93" y2="1.141" xlink:href="#d"/><linearGradient id="f" x1="-22.489" y1="-14.746" x2="-23.349" y2="-0.838" xlink:href="#d"/><linearGradient id="g" x1="-24.137" y1="0.5" x2="-23.137" y2="0.5" xlink:href="#b"/><linearGradient id="h" x1="2.484" y1="-1.42" x2="-2.097" y2="3.287" xlink:href="#d"/><linearGradient id="i" x1="-39.085" y1="0.5" x2="-38.085" y2="0.5" xlink:href="#b"/><linearGradient id="j" x1="-20.137" y1="0.531" x2="-16.156" y2="0.806" xlink:href="#b"/><linearGradient id="k" x1="-5.608" y1="0.537" x2="-4.035" y2="2.558" xlink:href="#b"/><linearGradient id="l" x1="8.865" y1="0.096" x2="8.052" y2="1.141" gradientUnits="objectBoundingBox"><stop offset="0" stop-color="#09005d"/><stop offset="1" stop-color="#1a0f91"/></linearGradient><linearGradient id="m" x1="4.147" y1="-0.644" x2="-2.295" y2="1.228" xlink:href="#d"/><linearGradient id="n" x1="9.796" y1="-1.415" x2="-4.321" y2="1.503" xlink:href="#d"/></defs><g transform="translate(-1098.999 -431)"><path class="a" d="M-2975.475,604.5c-26.465,61.858-96.323,88.428-151.058,83.9-14.945-1.237-45.014-3.726-68.493-25.928-45.089-42.639-38.145-131.767,5.018-184.24,5.559-6.757,44.034-52.032,103.99-51.426,43.9.444,74.707,25.24,78.454,28.329a120.842,120.842,0,0,1,24.579,27.888C-2960.88,517.591-2958.937,565.847-2975.475,604.5Z" transform="translate(4324.762 13.7)"/><g transform="translate(637.365 -6.209)"><g transform="translate(511.15 437.209)"><rect class="b" width="3.952" height="68.985" transform="translate(96.853 127.55)"/><g transform="translate(0 0)"><path class="b" d="M1384.787,1824.092c9.408-9.011,31.258-27.4,52.7-27.124,0,0-11.922,24.167-50.72,31A2.273,2.273,0,0,1,1384.787,1824.092Z" transform="translate(-1338.657 -1657.022)"/><path class="b" d="M945.057,1525.827c16.578-.808,64.563-.413,96.519,27.732,0,0-55.01,11.74-97.942-23.441A2.424,2.424,0,0,1,945.057,1525.827Z" transform="translate(-942.747 -1413.612)"/><path class="b" d="M1139.008,875.3c17.662,10.178,75.412,47.087,75.412,94.566,0,0-61.274-36.024-78.883-91.776A2.39,2.39,0,0,1,1139.008,875.3Z" transform="translate(-1115.591 -829.917)"/><path class="c" d="M1232.527,993.185c5.973,6.238,11.767,12.629,17.49,19.08,1.441,1.6,2.854,3.232,4.277,4.852l4.257,4.868c2.807,3.273,5.643,6.52,8.425,9.813,5.581,6.572,11.134,13.169,16.595,19.844s10.887,13.38,16.144,20.229a.483.483,0,0,1-.734.627c-5.941-6.265-11.721-12.668-17.45-19.114s-11.383-12.957-17-19.5c-2.817-3.263-5.579-6.574-8.372-9.859l-4.141-4.967c-1.377-1.659-2.763-3.31-4.121-4.984-5.475-6.663-10.879-13.386-16.1-20.263a.483.483,0,0,1,.734-.627Z" transform="translate(-1201.956 -935.832)"/><path class="c" d="M1020.417,1570.127c7.278,1.272,14.5,2.779,21.7,4.364s14.378,3.264,21.537,5.02,14.3,3.593,21.406,5.553c7.112,1.943,14.2,3.979,21.23,6.262a.36.36,0,0,1-.172.7c-7.284-1.25-14.506-2.747-21.706-4.337-7.2-1.573-14.376-3.273-21.531-5.046s-14.291-3.617-21.4-5.579-14.2-3.974-21.237-6.236a.36.36,0,0,1,.172-.7Z" transform="translate(-1012.045 -1453.524)"/><path class="c" d="M1435.529,1836.972c3.632-2.347,7.316-4.605,11.012-6.842q2.774-1.674,5.563-3.322t5.59-3.275l2.8-1.627,2.815-1.6c1.872-1.077,3.767-2.114,5.652-3.168,3.791-2.071,7.594-4.123,11.479-6.032a.36.36,0,0,1,.359.623c-3.6,2.4-7.284,4.662-10.978,6.9-1.857,1.1-3.7,2.221-5.576,3.3l-2.8,1.631-2.813,1.606q-2.81,1.612-5.638,3.192c-1.881,1.062-3.772,2.105-5.665,3.146-3.789,2.075-7.591,4.129-11.444,6.093a.36.36,0,0,1-.359-.623Z" transform="translate(-1384.666 -1669.671)"/><path class="b" d="M1965.974,1824.092c-9.407-9.011-31.258-27.4-52.7-27.124,0,0,11.923,24.167,50.72,31A2.273,2.273,0,0,0,1965.974,1824.092Z" transform="translate(-1813.39 -1657.022)"/><path class="b" d="M2009.794,1525.827c-16.578-.808-64.563-.413-96.519,27.732,0,0,55.01,11.74,97.942-23.441A2.424,2.424,0,0,0,2009.794,1525.827Z" transform="translate(-1813.39 -1413.612)"/><path class="b" d="M1988.687,875.3c-17.662,10.178-75.412,47.087-75.412,94.566,0,0,61.274-36.024,78.883-91.776A2.39,2.39,0,0,0,1988.687,875.3Z" transform="translate(-1813.39 -829.917)"/><path class="c" d="M1990.731,993.813c-5.225,6.877-10.629,13.6-16.1,20.263-1.358,1.675-2.745,3.325-4.121,4.984l-4.141,4.967c-2.792,3.285-5.555,6.595-8.372,9.858-5.617,6.542-11.262,13.059-17,19.5s-11.509,12.849-17.45,19.114a.483.483,0,0,1-.734-.627c5.257-6.849,10.676-13.561,16.145-20.229s11.014-13.272,16.595-19.844c2.782-3.294,5.618-6.541,8.425-9.813l4.257-4.868c1.423-1.62,2.836-3.248,4.277-4.851,5.723-6.451,11.517-12.842,17.49-19.08a.483.483,0,0,1,.734.627Z" transform="translate(-1821.853 -935.832)"/><path class="c" d="M2041.7,1570.824c-7.034,2.261-14.126,4.288-21.237,6.236s-14.246,3.8-21.4,5.579-14.327,3.473-21.531,5.046c-7.2,1.59-14.422,3.088-21.706,4.337a.36.36,0,0,1-.172-.7c7.029-2.283,14.118-4.319,21.23-6.262,7.108-1.96,14.248-3.793,21.406-5.553s14.333-3.449,21.537-5.02,14.421-3.092,21.7-4.364a.36.36,0,0,1,.173.7Z" transform="translate(-1851.183 -1453.524)"/><path class="c" d="M1982.976,1837.595c-3.853-1.964-7.654-4.018-11.443-6.093q-2.84-1.56-5.665-3.146t-5.638-3.192l-2.813-1.606-2.8-1.631c-1.871-1.078-3.719-2.2-5.576-3.3-3.694-2.24-7.376-4.5-10.978-6.9a.36.36,0,0,1,.359-.623c3.885,1.91,7.687,3.961,11.478,6.032,1.885,1.054,3.78,2.09,5.652,3.167l2.815,1.6,2.8,1.628q2.8,1.622,5.59,3.275t5.563,3.322c3.7,2.236,7.38,4.494,11.013,6.842a.36.36,0,0,1-.359.622Z" transform="translate(-1835.484 -1669.672)"/><path class="b" d="M1799.094,438.873c-5.377,17.421-18.855,72.191-.045,136.413a2.244,2.244,0,0,0,4.324.088c6.507-19.145,22.915-78.5,0-136.673A2.242,2.242,0,0,0,1799.094,438.873Z" transform="translate(-1702.243 -437.209)"/><path class="c" d="M1897.826,582.666c.368,5.12.593,10.24.795,15.36.084,2.56.2,5.12.257,7.68l.2,7.68q.307,15.36.214,30.72l-.044,7.68-.09,7.68-.1,7.68-.154,7.68c-.231,10.24-.525,20.48-1.076,30.72a.36.36,0,0,1-.719,0c-.55-10.24-.844-20.48-1.076-30.72l-.154-7.68-.1-7.68-.089-7.68-.045-7.68q-.072-15.36.215-30.72l.2-7.68c.059-2.56.174-5.12.257-7.68.2-5.12.427-10.24.8-15.36a.36.36,0,0,1,.719,0Z" transform="translate(-1797.56 -567.396)"/></g><path class="d" d="M1485.34,2381.754H1375.754a78.015,78.015,0,0,0,4.876,27.149l19.153,51.6a9.83,9.83,0,0,0,9.216,6.409h43.1a9.83,9.83,0,0,0,9.216-6.409l19.153-51.6a78.009,78.009,0,0,0,4.877-27.149Z" transform="translate(-1331.19 -2181.625)"/><rect class="e" width="123.239" height="15.09" rx="7.545" transform="translate(37.737 191.146)"/></g><g transform="translate(582.609 592.551)"><g transform="translate(0.329 10.56)"><path class="f" d="M1640.681,2049.2l1.042.2a.377.377,0,1,1-.139.742l-.02,0-.018,0-1-.246-.016,0a.347.347,0,0,1,.147-.679Z" transform="translate(-1640.269 -2049.197)"/><path class="f" d="M1672.551,2057.33l1,.36a.453.453,0,1,1-.307.852l-.016-.006-.02-.008-.947-.387-.018-.007a.431.431,0,0,1,.309-.8Z" transform="translate(-1668.711 -2056.47)"/><path class="f" d="M1702.917,2070.429l.935.508a.506.506,0,1,1-.483.889l-.009-.005-.02-.012-.885-.51-.018-.01a.492.492,0,0,1,.481-.859Z" transform="translate(-1695.817 -2068.19)"/><path class="f" d="M1731.228,2087.918l.858.631a.55.55,0,0,1-.652.887l-.009-.007-.019-.015-.807-.625-.017-.014a.537.537,0,0,1,.647-.857Z" transform="translate(-1721.1 -2083.84)"/><path class="f" d="M1756.971,2109.187l.762.745a.572.572,0,1,1-.8.818l0,0-.016-.016-.723-.719-.016-.016a.568.568,0,0,1,.8-.809Z" transform="translate(-1744.095 -2102.867)"/><path class="f" d="M1779.86,2133.882l.665.82a.586.586,0,1,1-.909.738l0,0-.008-.01-.643-.8-.009-.01a.582.582,0,0,1,.906-.73Z" transform="translate(-1764.566 -2124.973)"/><path class="f" d="M1800.338,2160.6l.609.859a.6.6,0,1,1-.975.69l0,0-.006-.009-.591-.846-.006-.009a.594.594,0,0,1,.971-.683Z" transform="translate(-1782.897 -2148.914)"/><path class="f" d="M1819.2,2188.581l.552.9a.59.59,0,0,1-1,.624l-.005-.009-.55-.874-.006-.008a.595.595,0,0,1,1.007-.634Z" transform="translate(-1799.798 -2173.982)"/><path class="f" d="M1836.769,2217.919l.482.937a.53.53,0,0,1-.93.507l-.006-.01-.513-.9-.005-.009a.554.554,0,1,1,.961-.551Z" transform="translate(-1815.607 -2200.286)"/><path class="f" d="M1852.944,2248.884l.388.982a.4.4,0,0,1-.738.331l-.006-.013-.461-.922-.005-.011a.451.451,0,1,1,.806-.4C1852.933,2248.86,1852.939,2248.873,1852.944,2248.884Z" transform="translate(-1830.275 -2228.077)"/></g><g transform="translate(0.849 6.655)"><path class="f" d="M1645.739,2011.259l1.029.217a.36.36,0,0,1-.148.7h-.006l-.011,0-1.005-.236-.009,0a.347.347,0,0,1,.151-.678Z" transform="translate(-1645.32 -2011.251)"/><path class="f" d="M1678.139,2019.218l1.007.3a.4.4,0,1,1-.231.766l-.007,0-.011,0-.982-.321-.009,0a.388.388,0,0,1,.233-.74Z" transform="translate(-1674.313 -2018.383)"/><path class="f" d="M1709.736,2029.867l.98.383a.44.44,0,1,1-.32.82l-.007,0-.011,0-.953-.4-.01,0a.428.428,0,0,1,.321-.793Z" transform="translate(-1702.583 -2027.925)"/><path class="f" d="M1740.437,2043.032l.947.46a.467.467,0,0,1-.408.84l0,0-.011-.006-.922-.463-.009,0a.46.46,0,0,1,.407-.825Z" transform="translate(-1730.055 -2039.72)"/><path class="f" d="M1770.156,2058.56l.911.528a.49.49,0,1,1-.491.847l0,0-.012-.007-.886-.529-.009-.006a.483.483,0,0,1,.489-.832Z" transform="translate(-1756.658 -2053.633)"/><path class="f" d="M1798.662,2076.214l.871.593a.512.512,0,1,1-.576.846l0,0-.011-.008-.845-.591-.009-.006a.505.505,0,0,1,.574-.832Z" transform="translate(-1782.172 -2069.449)"/><path class="f" d="M1825.83,2095.933l.823.66a.525.525,0,1,1-.656.819h0l-.009-.008-.8-.648-.009-.008a.523.523,0,0,1,.656-.815Z" transform="translate(-1806.49 -2087.114)"/><path class="f" d="M1851.54,2117.753l.77.721a.532.532,0,0,1-.728.777l0,0-.009-.009-.749-.707-.009-.009a.53.53,0,0,1,.727-.772Z" transform="translate(-1829.515 -2106.663)"/><path class="f" d="M1875.432,2141.531l.708.784a.54.54,0,1,1-.8.724v0l-.01-.01-.687-.766-.01-.01a.538.538,0,0,1,.8-.719Z" transform="translate(-1850.909 -2127.963)"/><path class="f" d="M1897.181,2167.285l.634.848a.548.548,0,0,1-.877.656v0l-.01-.013-.611-.825-.009-.013a.545.545,0,0,1,.875-.651Z" transform="translate(-1870.379 -2151.03)"/><path class="f" d="M1916.314,2195.03l.536.917a.547.547,0,0,1-.941.556l-.01-.017-.524-.879-.01-.016a.551.551,0,1,1,.947-.564Z" transform="translate(-1887.502 -2175.871)"/><path class="f" d="M1932.45,2225.045l.4.988a.494.494,0,0,1-.906.392l-.01-.02-.428-.928-.009-.019a.521.521,0,0,1,.947-.437Z" transform="translate(-1901.997 -2202.748)"/><path class="f" d="M1945.013,2257.625l.221,1.041a.372.372,0,0,1-.719.188l-.006-.02-.3-.978-.006-.02a.419.419,0,1,1,.8-.246C1945.007,2257.6,1945.01,2257.614,1945.013,2257.625Z" transform="translate(-1913.425 -2231.971)"/></g><g transform="translate(1.088 3.428)"><path class="f" d="M1648.023,1979.9l1.046.1a.375.375,0,1,1-.069.748l-.019,0h-.008l-1.025-.15h-.007a.348.348,0,0,1,.082-.69Z" transform="translate(-1647.644 -1979.894)"/><path class="f" d="M1680.708,1983.809l1.037.171a.456.456,0,0,1-.148.9l-.016,0-.01,0-1.013-.208h-.008a.435.435,0,0,1,.159-.856Z" transform="translate(-1676.851 -1983.401)"/><path class="f" d="M1713.215,1990.02l1.025.234a.525.525,0,0,1-.234,1.023l-.018,0-.011,0-1-.27-.009,0a.5.5,0,0,1,.244-.978Z" transform="translate(-1705.914 -1988.966)"/><path class="f" d="M1745.247,1998.187l1.01.295a.591.591,0,0,1-.331,1.134l-.017-.006-.012,0-.981-.324-.009,0a.573.573,0,0,1,.34-1.093Z" transform="translate(-1734.545 -1996.284)"/><path class="f" d="M1776.9,2008.363l.991.354a.633.633,0,0,1-.425,1.192l-.011,0-.012,0-.964-.37-.009,0a.62.62,0,0,1,.431-1.163Z" transform="translate(-1762.858 -2005.401)"/><path class="f" d="M1808.035,2020.264l.972.4a.674.674,0,0,1-.516,1.246l-.012,0-.011-.005-.945-.418-.009,0a.662.662,0,0,1,.522-1.216Z" transform="translate(-1790.706 -2016.064)"/><path class="f" d="M1838.526,2033.693l.952.448a.717.717,0,0,1-.611,1.3l-.012-.006-.011-.006-.924-.462-.009,0a.7.7,0,0,1,.615-1.266Z" transform="translate(-1817.981 -2028.096)"/><path class="f" d="M1868.321,2048.514l.929.494a.753.753,0,1,1-.708,1.33l-.006,0-.012-.006-.9-.5-.009-.005a.746.746,0,0,1,.71-1.311Z" transform="translate(-1844.626 -2041.373)"/><path class="f" d="M1897.64,2064.87l.905.536a.767.767,0,0,1-.781,1.32l-.005,0-.008,0-.885-.533-.008,0a.763.763,0,0,1,.782-1.31Z" transform="translate(-1870.878 -2056.029)"/><path class="f" d="M1926.287,2082.45l.885.576a.781.781,0,1,1-.852,1.309l-.005,0-.012-.008-.858-.568-.01-.007a.777.777,0,0,1,.853-1.3Z" transform="translate(-1896.532 -2071.783)"/><path class="f" d="M1953.926,2101.539l.844.656a.8.8,0,0,1-.976,1.255l-.005,0-.021-.017-.8-.63-.021-.017a.791.791,0,0,1,.976-1.244Z" transform="translate(-1921.259 -2088.869)"/><path class="f" d="M1979.49,2123.405l.756.766a.809.809,0,0,1-1.151,1.136l0,0-.023-.024-.7-.723-.024-.024a.8.8,0,0,1,1.15-1.125Z" transform="translate(-1944.101 -2108.42)"/><path class="f" d="M2001.931,2148.551l.648.849a.823.823,0,0,1-1.308,1l0-.005-.016-.021-.61-.812-.017-.021a.818.818,0,0,1,1.305-.988Z" transform="translate(-1964.151 -2130.904)"/><path class="f" d="M2021.472,2176.2l.558.9a.805.805,0,0,1-1.362.859l-.009-.013-.554-.864-.009-.014a.813.813,0,1,1,1.369-.877Z" transform="translate(-1981.649 -2155.651)"/><path class="f" d="M2039.333,2205.569l.482.934a.715.715,0,0,1-1.244.7l-.006-.009-.54-.883,0-.007a.753.753,0,0,1,1.285-.785C2039.316,2205.537,2039.325,2205.553,2039.333,2205.569Z" transform="translate(-1997.746 -2181.977)"/><path class="f" d="M2056.717,2236.537c.148.316.29.636.432.955a.546.546,0,0,1-.965.508l0,0c-.181-.3-.363-.592-.538-.891l0,0a.608.608,0,1,1,1.049-.614C2056.7,2236.5,2056.709,2236.521,2056.717,2236.537Z" transform="translate(-2013.577 -2209.81)"/><path class="f" d="M2074.223,2268.822l.022.055a.349.349,0,0,1-.62.315l-.031-.05a.354.354,0,1,1,.6-.378A.349.349,0,0,1,2074.223,2268.822Z" transform="translate(-2029.707 -2238.886)"/></g><g transform="translate(0 0)"><path class="f" d="M1637.407,1947.112l1.047-.048a.374.374,0,1,1,.034.747h-.025l-1.037-.005h-.005a.347.347,0,0,1-.014-.695Z" transform="translate(-1637.075 -1947.015)"/><path class="f" d="M1670.421,1946.591l1.049.011a.454.454,0,1,1-.01.908h-.024l-1.035-.051h-.007a.434.434,0,0,1,.026-.868Z" transform="translate(-1666.596 -1946.591)"/><path class="f" d="M1703.605,1947.543l1.048.063a.52.52,0,0,1-.063,1.037h-.027l-1.03-.1h-.007a.5.5,0,0,1,.079-1Z" transform="translate(-1696.282 -1947.445)"/><path class="f" d="M1736.676,1950.154l1.045.115a.585.585,0,0,1-.127,1.164l-.02,0h-.011l-1.023-.152h-.008a.565.565,0,0,1,.144-1.121Z" transform="translate(-1725.862 -1949.785)"/><path class="f" d="M1769.589,1954.475l1.037.173a.635.635,0,0,1-.208,1.252l-.011,0-.012,0-1.015-.193-.009,0a.623.623,0,0,1,.219-1.226Z" transform="translate(-1755.3 -1953.656)"/><path class="f" d="M1802.412,1960.577l1.028.223a.675.675,0,1,1-.286,1.319l-.012,0-.013,0-1-.242-.01,0a.663.663,0,0,1,.3-1.292Z" transform="translate(-1784.676 -1959.124)"/><path class="f" d="M1834.885,1968.284l1.017.273a.715.715,0,1,1-.371,1.381l-.012,0-.013,0-.99-.291-.01,0a.7.7,0,0,1,.38-1.353Z" transform="translate(-1813.732 -1966.03)"/><path class="f" d="M1866.922,1977.6l1,.324a.755.755,0,0,1-.464,1.438l-.013,0-.014,0-.974-.339-.011,0a.743.743,0,0,1,.473-1.409Z" transform="translate(-1842.395 -1974.375)"/><path class="f" d="M1898.416,1988.521l.985.378a.792.792,0,1,1-.567,1.479l-.009,0-.015-.006-.956-.385-.012,0a.783.783,0,0,1,.574-1.458Z" transform="translate(-1870.565 -1984.159)"/><path class="f" d="M1929.429,2001.238l.963.432a.813.813,0,0,1-.666,1.483l0,0-.016-.007-.935-.433-.012-.005a.807.807,0,0,1,.669-1.468Z" transform="translate(-1898.321 -1995.55)"/><path class="f" d="M1959.744,2015.647l.939.485a.834.834,0,1,1-.766,1.481l0,0-.017-.009-.908-.483-.013-.007a.827.827,0,0,1,.768-1.465Z" transform="translate(-1925.452 -2008.457)"/><path class="f" d="M1989.182,2031.727l.906.539a.85.85,0,0,1-.869,1.461l0,0-.009-.006-.885-.531-.01-.005a.848.848,0,0,1,.87-1.456Z" transform="translate(-1951.795 -2022.857)"/><path class="f" d="M2017.867,2049.44l.882.579a.857.857,0,0,1-.942,1.433l0,0-.01-.007-.859-.57-.01-.007a.855.855,0,0,1,.942-1.427Z" transform="translate(-1977.488 -2038.727)"/><path class="f" d="M2045.7,2068.469l.853.624a.864.864,0,1,1-1.02,1.395l0,0-.011-.008-.828-.611-.011-.008a.862.862,0,0,1,1.02-1.39Z" transform="translate(-2002.416 -2055.775)"/><path class="f" d="M2072.5,2088.919l.817.672a.87.87,0,0,1-1.1,1.343h0l-.012-.01-.793-.654-.011-.01a.869.869,0,0,1,1.1-1.342Z" transform="translate(-2026.413 -2074.094)"/><path class="f" d="M2098.191,2111.034l.771.727a.854.854,0,0,1-1.166,1.249l-.013-.012-.752-.7-.012-.011a.859.859,0,1,1,1.167-1.26Z" transform="translate(-2049.436 -2093.9)"/><path class="f" d="M2122.493,2134.876l.713.786a.821.821,0,0,1-1.2,1.119l-.014-.014-.707-.74-.012-.013a.835.835,0,1,1,1.207-1.154Z" transform="translate(-2071.231 -2115.252)"/><path class="f" d="M2145.194,2160.622l.642.846a.766.766,0,0,1-1.2.954l-.014-.016-.654-.788-.012-.014a.789.789,0,1,1,1.214-1.009Z" transform="translate(-2091.627 -2138.314)"/><path class="f" d="M2166.022,2188.4l.561.9a.685.685,0,0,1-1.141.757l-.012-.018-.588-.838-.011-.015a.714.714,0,1,1,1.169-.82Z" transform="translate(-2110.4 -2163.215)"/><path class="f" d="M2184.534,2218.117l.463.955a.572.572,0,0,1-1.008.538l-.01-.017-.516-.887-.009-.015a.612.612,0,0,1,1.058-.616C2184.52,2218.09,2184.528,2218.1,2184.534,2218.117Z" transform="translate(-2127.148 -2189.863)"/><path class="f" d="M2200.463,2249.8l.352,1a.421.421,0,0,1-.778.319l-.006-.014-.434-.934-.006-.013a.472.472,0,0,1,.855-.4A.344.344,0,0,1,2200.463,2249.8Z" transform="translate(-2141.659 -2218.314)"/></g></g><path class="g" d="M672.389,2128.145s-.939,24.483-18.04,32.28l7.594,5.308s15.4-17.352,13.073-32.928Z" transform="translate(-172.88 -1516.909)"/><g transform="translate(461.635 539.89)"><path class="d" d="M4.418,0H36.165a4.418,4.418,0,0,1,4.418,4.418v0a0,0,0,0,1,0,0H0a0,0,0,0,1,0,0v0A4.418,4.418,0,0,1,4.418,0Z" transform="matrix(0.75, 0.662, -0.662, 0.75, 59.537, 3.248)"/><path class="d" d="M988.455,1980.814l42.353,4.327-.017,5.334L967.1,2014.137Z" transform="translate(-915.082 -1924.631)"/><path class="d" d="M471.935,1475.915c-.051-.045-.1-.091-.149-.139l-7.057-6.928c-4.332-4.253-4.085-11.554.551-16.277l13.6-13.853c4.636-4.723,11.933-5.1,16.264-.852l7.057,6.928a3.811,3.811,0,0,1-5.339,5.439l-7.057-6.928c-1.31-1.288-3.823-.942-5.486.752l-13.6,13.852c-1.663,1.694-1.961,4.212-.651,5.5l7.057,6.928a3.811,3.811,0,0,1-5.19,5.578Z" transform="translate(-461.635 -1434.912)"/><path class="e" d="M582.683,1482.912l-37.767-33.353a5.55,5.55,0,0,0-7.619.256l-36.783,37.17q-.111.112-.215.23l-4.671,5.289a5.55,5.55,0,0,0,.486,7.834l42.214,37.281a5.551,5.551,0,0,0,7.835-.486l4.671-5.289q.1-.118.2-.242l32.336-41.1A5.55,5.55,0,0,0,582.683,1482.912Z" transform="translate(-490.882 -1446.805)"/><path class="d" d="M1590.672,1930.482l-4.382-23.744a.7.7,0,0,0-.813-.56l-1.541.284a.7.7,0,0,0-.387.213L1576.961,1918l.929,5.623,10.245,7.893a.7.7,0,0,0,.437.061l1.541-.284A.7.7,0,0,0,1590.672,1930.482Z" transform="translate(-1462.174 -1857.666)"/><path class="h" d="M576.882,1671.224a.519.519,0,0,1-.345-.131l-17.183-15.175a4.067,4.067,0,0,1-.2-5.906l26.272-26.6a.521.521,0,0,1,.742.733l-26.272,26.6a3.024,3.024,0,0,0,.15,4.392l17.184,15.175a.521.521,0,0,1-.346.912Z" transform="translate(-548.064 -1603.87)"/></g><g transform="translate(465.004 625.056)"><path class="i" d="M533.938,2839.269s-9.044,19.711-13.789,27.875c0,0-.942,5.137,0,6.752l.8.357-3.748-.112s-.333-6.91-.073-7.3a.955.955,0,0,1,.78-.361s1.607-12.733,6.262-15.451l4.511-15.537Z" transform="translate(-514.7 -2776.518)"/><path class="j" d="M510.03,3145c.006.091-2.927.049-4.52.02a1.266,1.266,0,0,1-1.215-1l-1.2-6.32a1.137,1.137,0,0,1,.863-1.321l.671-.153a3.6,3.6,0,0,1,.656,2.552c-.3,1.237-.57,4.442.192,4.815a11.109,11.109,0,0,0,2.954.439S509.98,3144.188,510.03,3145Z" transform="translate(-502.177 -3046.299)"/><path class="k" d="M532.228,2731.283l4.9-27.144,9.048,5.655s-6.084,17.006-9.425,23.751-7.917,14.326-7.917,14.326-1.508.377-3.393-1.885C525.442,2745.986,526.573,2735.807,532.228,2731.283Z" transform="translate(-522.244 -2658.678)"/><path class="l" d="M681.15,3193.868a.331.331,0,0,1-.167.618c-2.666-.027-8.639-.111-9.17-.332-.685-.285.25-2.747,1.234-3.581l5.433,1.773Z" transform="translate(-653.34 -3095.05)"/><path class="m" d="M695.641,2859.927s-5.844,28.272-7.5,33.787l3.911,2.454s-1.96-.333-3.413-.439a4.98,4.98,0,0,1-2.79-1.773l.468-.747s1.466-28.119,1.109-31.312Z" transform="translate(-666.144 -2798.433)"/><path class="n" d="M677.221,2424.16c-2.24.621-9.829,2.617-14.567,2.536l2.909,16.415-.232,2.678,9.484-.042a73.564,73.564,0,0,1,4.776-9.292c.608-.893.156-1.958-.189-2.982l.474-.315a1.289,1.289,0,0,0,.511-1.474l-2.309-7.066A.705.705,0,0,0,677.221,2424.16Z" transform="translate(-645.335 -2407.491)"/><path class="o" d="M654.373,2617.65l-.141,1.223a1.646,1.646,0,0,0,.083.74c.45,1.273,1.874,6.063.913,13.43a19.864,19.864,0,0,1-11.282.5,6.758,6.758,0,0,1-4.861-7.451,12.137,12.137,0,0,1,.468-2c.758-2.428,3.118-4.109,4.119-4.731a1.03,1.03,0,0,0,.483-.828l.056-1.21S651.865,2618.706,654.373,2617.65Z" transform="translate(-624.132 -2580.796)"/><path class="p" d="M699.917,2384.258c.033-.044-1.98-6.078-1.98-6.078l-2.884.261-1.127,6.846S698.446,2386.2,699.917,2384.258Z" transform="translate(-673.388 -2366.266)"/><path class="q" d="M660.219,2283.146c.192.12,6.162,2.587,4.88,8.785a1.164,1.164,0,0,1-.662.829,10.116,10.116,0,0,1-5.018.831c-3.127-.318-5.177-5.776-5.09-7.364S658.313,2281.96,660.219,2283.146Z" transform="translate(-637.864 -2280.75)"/><path class="r" d="M808.215,2291.872a1.265,1.265,0,0,1,1.127-1.718,13.94,13.94,0,0,0,9.263-4.033c2.1-2.1,2.657-9.741,2.657-9.741s.443-3.542,1.328-3.542,0,2.214,0,2.214a3.982,3.982,0,0,0,4.428-.443c2.214-1.771-.443,2.656-2.657,3.542,0,0,.851,17.444-13.712,17.716a1.272,1.272,0,0,1-1.21-.813Z" transform="translate(-775.838 -2271.766)"/><path class="s" d="M518.753,2277.333a8.159,8.159,0,0,0-.684-3.28,3.252,3.252,0,0,1,.4-3.4,5.122,5.122,0,0,0,1.053-5.242c-1.116-2.689-4.695-3.76-7.993-2.391a6.726,6.726,0,0,0-4.222,4.908,4.509,4.509,0,0,1-1.724,2.885,8.211,8.211,0,0,0-2.832,4,4.547,4.547,0,0,1-2.047,2.587,12.634,12.634,0,1,0,17.649,5.46,3.236,3.236,0,0,1-.15-2.583A8.112,8.112,0,0,0,518.753,2277.333Z" transform="translate(-494.373 -2262.421)"/><path class="t" d="M682.329,2804.6c-.513-.146,1.885-38.077,1.885-38.077l-1.508-3.77,11.31.754s-4.524,34.307-7.163,41.47A10.5,10.5,0,0,1,682.329,2804.6Z" transform="translate(-662.921 -2711.256)"/><path class="u" d="M742.336,2430.492l-2.081.5s1.419,14.094-2.351,19.372l2.262.377S744.129,2442.668,742.336,2430.492Z" transform="translate(-712.839 -2413.195)"/></g></g></g></svg>